<?xml version="1.0" ?><svg width="24px" height="24px" id="Object" viewBox="0 0 32 32" xmlns="http://www.w3.org/2000/svg"><title/><path  d="M28,5H4A3,3,0,0,0,1,8V24a3,3,0,0,0,3,3H28a3,3,0,0,0,3-3V8A3,3,0,0,0,28,5ZM3,24V8A1,1,0,0,1,4,7H21V25H4A1,1,0,0,1,3,24Zm26,0a1,1,0,0,1-1,1H23V7h5a1,1,0,0,1,1,1Z"/><path d="M17,9H7a2,2,0,0,0-2,2V21a2,2,0,0,0,2,2H17a2,2,0,0,0,2-2V11A2,2,0,0,0,17,9ZM7,21V11H17V21Z"/><path d="M27,15H25a1,1,0,0,0,0,2h2a1,1,0,0,0,0-2Z"/><path d="M27,19H25a1,1,0,0,0,0,2h2a1,1,0,0,0,0-2Z"/></svg>