<?xml version="1.0" ?><svg width="24px" height="24px" data-name="027_APPLIANCES" id="_027_APPLIANCES" viewBox="0 0 24 24" xmlns="http://www.w3.org/2000/svg"><defs><style>.cls-1{fill:#333;}</style></defs><path class="cls-1" d="M6.5,22A4.5,4.5,0,1,1,11,17.5,4.51,4.51,0,0,1,6.5,22Zm0-7A2.5,2.5,0,1,0,9,17.5,2.5,2.5,0,0,0,6.5,15Z"/><path class="cls-1" d="M11,22H6a1,1,0,0,1,0-2h5a2,2,0,0,0,2-2V17a7,7,0,0,0-7-7v1a1,1,0,0,1-2,0V10A2,2,0,0,1,6,8a9,9,0,0,1,9,9v1A4,4,0,0,1,11,22Z"/><path class="cls-1" d="M19,22a1,1,0,0,1-1-1V11a1,1,0,0,1,2,0V21A1,1,0,0,1,19,22Z"/><path class="cls-1" d="M9,10A1,1,0,0,1,8,9V8A6,6,0,0,1,20,8a1,1,0,0,1-2,0,4,4,0,0,0-8,0V9A1,1,0,0,1,9,10Z"/><path class="cls-1" d="M21,22H17a1,1,0,0,1,0-2h4a1,1,0,0,1,0,2Z"/></svg>